# xmcd
#
# Track frame offsets: 
#        150
#        14779
#        27308
#        41057
#        54613
#        67951
#        82888
#        96605
#        109841
#        122179
#        133892
#        145306
#        158046
#        170626
#        181909
#        194700
#        207457
#        221883
#        235505
#        245167
#
# Disc length: 3433 seconds
#
# Revision: 0
# Processed by: cddbd v1.5.2PL0 Copyright (c) Steve Scherf et al.
# Submitted via: ExactAudioCopy v0.99pb5
#
DISCID=3a0d6714
DTITLE=Various Artist - The Roots Of Bob Dylan (2 - Sitting On Top Of The Wor
DTITLE=ld)  
DYEAR=2009
DGENRE=Blues/Folk
TTITLE0=Clarence Ashley/The House Carpenter
TTITLE1=Jimmie Rodgers/My Blue Eyed Jane
TTITLE2=Mississippi Sheiks/Sitting On Top Of The World
TTITLE3=Sleepy John Estes/Someday Baby Blues
TTITLE4=Leroy Carr/When The Sun Goes Down
TTITLE5=Prairie Ramblers/Deep Elem Blues
TTITLE6=Carter Family/The Wayworn Traveller
TTITLE7=Blind Boy Fuller/Mama Let Me Lay It On You
TTITLE8=Robert Johnson/Come On In My Kitchen
TTITLE9=Roy Acuff/Freight Train Blues
TTITLE10=Blind Willie McTell/Delia
TTITLE11=Tommy McClennan/New Highway No. 51
TTITLE12=Bukka White/Fixin' To Die
TTITLE13=Tampa Red/It Hurts Me Too
TTITLE14=Woody Guthrie/Ranger's Command
TTITLE15=Woody Guthrie/Gypsy Davy
TTITLE16=The Ink Spots/To Each His Own
TTITLE17=Bill Monroe/Blue Moon Of Kentucky
TTITLE18=Leadbelly/Black Girl
TTITLE19=Merle Travis/Dark As A Dungeon
EXTD=
EXTT0=
EXTT1=
EXTT2=
EXTT3=
EXTT4=
EXTT5=
EXTT6=
EXTT7=
EXTT8=
EXTT9=
EXTT10=
EXTT11=
EXTT12=
EXTT13=
EXTT14=
EXTT15=
EXTT16=
EXTT17=
EXTT18=
EXTT19=
PLAYORDER=
